# xmcd
#
# Track frame offsets:
#	150
#	23821
#	50596
#	84880
#	120130
#	149869
#	178129
#	206279
#	227226
#	246828
#
# Disc length: 3664 seconds
# Revision: 0
# Processed by: cddbd v1.5.2PL0 Copyright (c) Steve Scherf et al.
# Submitted via: dBpowerAMP V12.0
#
DISCID=830e4e0a
DTITLE=Millie and Andrea - Don't Touch Me Nylon - Singles 2008 - 2010
DYEAR=1900
DGENRE=
TTITLE0=Black Hammer
TTITLE1=Gunshot
TTITLE2=Sample Clearance
TTITLE3=Path to Hell
TTITLE4=Vigilance
TTITLE5=Ever Since You Came Down
TTITLE6=You Still Got Me
TTITLE7=Got to Forget
TTITLE8=Retail Juke
TTITLE9=Write Off
EXTD=
EXTT0=
EXTT1=
EXTT2=
EXTT3=
EXTT4=
EXTT5=
EXTT6=
EXTT7=
EXTT8=
EXTT9=
PLAYORDER=
